<svg width="32" height="32" viewBox="0 0 32 32" fill="none" xmlns="http://www.w3.org/2000/svg">
<path d="M24.2969 19.7959C24.1924 19.9008 24.0682 19.984 23.9314 20.0408C23.7947 20.0976 23.6481 20.1268 23.5 20.1268C23.3519 20.1268 23.2053 20.0976 23.0686 20.0408C22.9318 19.984 22.8076 19.9008 22.7031 19.7959L16.0009 13.0938L9.29687 19.7959C9.08553 20.0073 8.79888 20.126 8.5 20.126C8.20111 20.126 7.91447 20.0073 7.70312 19.7959C7.49178 19.5846 7.37305 19.2979 7.37305 18.9991C7.37305 18.7002 7.49178 18.4135 7.70312 18.2022L15.2031 10.7022C15.3076 10.5973 15.4318 10.5141 15.5686 10.4573C15.7053 10.4005 15.8519 10.3713 16 10.3713C16.1481 10.3713 16.2947 10.4005 16.4314 10.4573C16.5682 10.5141 16.6924 10.5973 16.7969 10.7022L24.2969 18.2022C24.4018 18.3067 24.485 18.4309 24.5418 18.5676C24.5985 18.7044 24.6278 18.851 24.6278 18.9991C24.6278 19.1471 24.5985 19.2937 24.5418 19.4305C24.485 19.5672 24.4018 19.6914 24.2969 19.7959Z" fill="#15AA7A"/>
</svg>
