<svg width="24" height="25" viewBox="0 0 24 25" fill="none" xmlns="http://www.w3.org/2000/svg">
<path d="M20.7806 13.4405L14.0306 20.1905C13.8899 20.3312 13.699 20.4103 13.5 20.4103C13.301 20.4103 13.1101 20.3312 12.9694 20.1905C12.8286 20.0497 12.7496 19.8589 12.7496 19.6598C12.7496 19.4608 12.8286 19.2699 12.9694 19.1292L18.4397 13.6598H3.75C3.55109 13.6598 3.36032 13.5808 3.21967 13.4402C3.07902 13.2995 3 13.1088 3 12.9098C3 12.7109 3.07902 12.5202 3.21967 12.3795C3.36032 12.2389 3.55109 12.1598 3.75 12.1598H18.4397L12.9694 6.69047C12.8286 6.54974 12.7496 6.35886 12.7496 6.15984C12.7496 5.96082 12.8286 5.76995 12.9694 5.62922C13.1101 5.48849 13.301 5.40942 13.5 5.40942C13.699 5.40942 13.8899 5.48849 14.0306 5.62922L20.7806 12.3792C20.8504 12.4489 20.9057 12.5316 20.9434 12.6226C20.9812 12.7137 21.0006 12.8113 21.0006 12.9098C21.0006 13.0084 20.9812 13.106 20.9434 13.197C20.9057 13.2881 20.8504 13.3708 20.7806 13.4405Z" fill="#4D5F6E"/>
</svg>
