<svg width="11" height="6" viewBox="0 0 11 6" fill="none" xmlns="http://www.w3.org/2000/svg">
<path d="M10.8535 5.14607L5.85373 0.146626C5.8073 0.100143 5.75216 0.0632678 5.69146 0.0381085C5.63076 0.0129491 5.5657 7.502e-08 5.5 7.502e-08C5.4343 7.502e-08 5.36924 0.0129491 5.30854 0.0381085C5.24784 0.0632678 5.1927 0.100143 5.14627 0.146626L0.146521 5.14607C0.052705 5.23988 0 5.36711 0 5.49978C0 5.63245 0.052705 5.75968 0.146521 5.85349C0.240336 5.9473 0.367577 6 0.500253 6C0.632928 6 0.760169 5.9473 0.853985 5.85349L5.5 1.20713L10.146 5.85349C10.1925 5.89994 10.2476 5.93678 10.3083 5.96192C10.369 5.98706 10.4341 6 10.4997 6C10.5654 6 10.6305 5.98706 10.6912 5.96192C10.7519 5.93678 10.807 5.89994 10.8535 5.85349C10.8999 5.80704 10.9368 5.75189 10.9619 5.6912C10.9871 5.63052 11 5.56547 11 5.49978C11 5.43409 10.9871 5.36904 10.9619 5.30835C10.9368 5.24766 10.8999 5.19252 10.8535 5.14607Z" fill="#25272A"/>
</svg>
