<svg width="24" height="25" viewBox="0 0 24 25" fill="none" xmlns="http://www.w3.org/2000/svg">
<path d="M20.9996 12.9098C20.9996 13.1088 20.9206 13.2995 20.7799 13.4402C20.6393 13.5808 20.4485 13.6598 20.2496 13.6598H5.55993L11.0302 19.1292C11.0999 19.1989 11.1552 19.2816 11.1929 19.3727C11.2306 19.4637 11.25 19.5613 11.25 19.6598C11.25 19.7584 11.2306 19.856 11.1929 19.947C11.1552 20.0381 11.0999 20.1208 11.0302 20.1905C10.9606 20.2601 10.8778 20.3154 10.7868 20.3531C10.6957 20.3908 10.5982 20.4103 10.4996 20.4103C10.4011 20.4103 10.3035 20.3908 10.2124 20.3531C10.1214 20.3154 10.0387 20.2601 9.96899 20.1905L3.21899 13.4405C3.14926 13.3708 3.09394 13.2881 3.05619 13.197C3.01845 13.106 2.99902 13.0084 2.99902 12.9098C2.99902 12.8113 3.01845 12.7137 3.05619 12.6226C3.09394 12.5316 3.14926 12.4489 3.21899 12.3792L9.96899 5.62922C10.1097 5.48849 10.3006 5.40942 10.4996 5.40942C10.6986 5.40942 10.8895 5.48849 11.0302 5.62922C11.171 5.76995 11.25 5.96082 11.25 6.15984C11.25 6.35886 11.171 6.54974 11.0302 6.69047L5.55993 12.1598H20.2496C20.4485 12.1598 20.6393 12.2389 20.7799 12.3795C20.9206 12.5202 20.9996 12.7109 20.9996 12.9098Z" fill="#B3C5D4"/>
</svg>
