<svg width="24" height="25" viewBox="0 0 24 25" fill="none" xmlns="http://www.w3.org/2000/svg">
<path d="M19.5 3.41003H17.25V2.66003C17.25 2.46112 17.171 2.27036 17.0303 2.1297C16.8897 1.98905 16.6989 1.91003 16.5 1.91003C16.3011 1.91003 16.1103 1.98905 15.9697 2.1297C15.829 2.27036 15.75 2.46112 15.75 2.66003V3.41003H8.25V2.66003C8.25 2.46112 8.17098 2.27036 8.03033 2.1297C7.88968 1.98905 7.69891 1.91003 7.5 1.91003C7.30109 1.91003 7.11032 1.98905 6.96967 2.1297C6.82902 2.27036 6.75 2.46112 6.75 2.66003V3.41003H4.5C4.10218 3.41003 3.72064 3.56807 3.43934 3.84937C3.15804 4.13068 3 4.51221 3 4.91003V19.91C3 20.3079 3.15804 20.6894 3.43934 20.9707C3.72064 21.252 4.10218 21.41 4.5 21.41H19.5C19.8978 21.41 20.2794 21.252 20.5607 20.9707C20.842 20.6894 21 20.3079 21 19.91V4.91003C21 4.51221 20.842 4.13068 20.5607 3.84937C20.2794 3.56807 19.8978 3.41003 19.5 3.41003ZM6.75 4.91003V5.66003C6.75 5.85895 6.82902 6.04971 6.96967 6.19036C7.11032 6.33102 7.30109 6.41003 7.5 6.41003C7.69891 6.41003 7.88968 6.33102 8.03033 6.19036C8.17098 6.04971 8.25 5.85895 8.25 5.66003V4.91003H15.75V5.66003C15.75 5.85895 15.829 6.04971 15.9697 6.19036C16.1103 6.33102 16.3011 6.41003 16.5 6.41003C16.6989 6.41003 16.8897 6.33102 17.0303 6.19036C17.171 6.04971 17.25 5.85895 17.25 5.66003V4.91003H19.5V7.91003H4.5V4.91003H6.75ZM19.5 19.91H4.5V9.41003H19.5V19.91Z" fill="#667F93"/>
</svg>
