<svg width="24" height="25" viewBox="0 0 24 25" fill="none" xmlns="http://www.w3.org/2000/svg">
<path d="M12 2.66003C10.0716 2.66003 8.18657 3.23186 6.58319 4.30321C4.97982 5.37455 3.73013 6.89729 2.99218 8.67887C2.25422 10.4605 2.06114 12.4209 2.43735 14.3122C2.81355 16.2035 3.74215 17.9408 5.10571 19.3043C6.46928 20.6679 8.20656 21.5965 10.0979 21.9727C11.9892 22.3489 13.9496 22.1558 15.7312 21.4179C17.5127 20.6799 19.0355 19.4302 20.1068 17.8268C21.1782 16.2235 21.75 14.3384 21.75 12.41C21.7473 9.82501 20.7192 7.34665 18.8913 5.51876C17.0634 3.69087 14.585 2.66276 12 2.66003ZM12 20.66C10.3683 20.66 8.77326 20.1762 7.41655 19.2697C6.05984 18.3631 5.00242 17.0747 4.378 15.5672C3.75358 14.0597 3.5902 12.4009 3.90853 10.8005C4.22685 9.2002 5.01259 7.73019 6.16637 6.5764C7.32016 5.42262 8.79017 4.63688 10.3905 4.31856C11.9909 4.00023 13.6497 4.16361 15.1571 4.78803C16.6646 5.41245 17.9531 6.46987 18.8596 7.82658C19.7661 9.18329 20.25 10.7783 20.25 12.41C20.2475 14.5973 19.3775 16.6943 17.8309 18.2409C16.2843 19.7876 14.1873 20.6576 12 20.66ZM18 12.41C18 12.6089 17.921 12.7997 17.7803 12.9404C17.6397 13.081 17.4489 13.16 17.25 13.16H12C11.8011 13.16 11.6103 13.081 11.4697 12.9404C11.329 12.7997 11.25 12.6089 11.25 12.41V7.16003C11.25 6.96112 11.329 6.77036 11.4697 6.6297C11.6103 6.48905 11.8011 6.41003 12 6.41003C12.1989 6.41003 12.3897 6.48905 12.5303 6.6297C12.671 6.77036 12.75 6.96112 12.75 7.16003V11.66H17.25C17.4489 11.66 17.6397 11.7391 17.7803 11.8797C17.921 12.0204 18 12.2111 18 12.41Z" fill="#667F93"/>
</svg>
