<svg width="24" height="25" viewBox="0 0 24 25" fill="none" xmlns="http://www.w3.org/2000/svg">
<path d="M21.5308 20.8794L16.8368 16.1863C18.1973 14.5529 18.8757 12.4578 18.7309 10.3369C18.5861 8.21608 17.6293 6.23268 16.0593 4.79935C14.4894 3.36602 12.4274 2.59312 10.3021 2.64142C8.17687 2.68972 6.15205 3.5555 4.64888 5.05867C3.14571 6.56184 2.27993 8.58666 2.23163 10.7119C2.18333 12.8372 2.95623 14.8992 4.38956 16.4691C5.82289 18.039 7.80629 18.9959 9.92715 19.1407C12.048 19.2855 14.1431 18.6071 15.7765 17.2466L20.4696 21.9406C20.5393 22.0103 20.622 22.0656 20.713 22.1033C20.8041 22.141 20.9017 22.1604 21.0002 22.1604C21.0988 22.1604 21.1963 22.141 21.2874 22.1033C21.3784 22.0656 21.4612 22.0103 21.5308 21.9406C21.6005 21.8709 21.6558 21.7882 21.6935 21.6972C21.7312 21.6061 21.7506 21.5085 21.7506 21.41C21.7506 21.3115 21.7312 21.2139 21.6935 21.1228C21.6558 21.0318 21.6005 20.9491 21.5308 20.8794ZM3.75021 10.91C3.75021 9.57498 4.14609 8.26994 4.88779 7.1599C5.62949 6.04987 6.6837 5.18471 7.9171 4.67382C9.1505 4.16293 10.5077 4.02925 11.8171 4.2897C13.1264 4.55015 14.3292 5.19303 15.2732 6.13703C16.2172 7.08104 16.8601 8.28377 17.1205 9.59314C17.381 10.9025 17.2473 12.2597 16.7364 13.4931C16.2255 14.7265 15.3603 15.7807 14.2503 16.5224C13.1403 17.2641 11.8352 17.66 10.5002 17.66C8.71061 17.658 6.99488 16.9462 5.72944 15.6808C4.46399 14.4153 3.7522 12.6996 3.75021 10.91Z" fill="white"/>
</svg>
