<svg width="13" height="8" viewBox="0 0 13 8" fill="none" xmlns="http://www.w3.org/2000/svg">
<path d="M12.0306 2.23563L7.0306 7.23563C6.96092 7.30555 6.87813 7.36103 6.78696 7.39888C6.6958 7.43673 6.59806 7.45622 6.49935 7.45622C6.40064 7.45622 6.3029 7.43673 6.21173 7.39888C6.12057 7.36103 6.03778 7.30555 5.9681 7.23563L0.968098 2.23563C0.827202 2.09473 0.748047 1.90364 0.748047 1.70438C0.748047 1.50512 0.827202 1.31403 0.968098 1.17313C1.10899 1.03223 1.30009 0.953079 1.49935 0.953079C1.69861 0.953079 1.8897 1.03223 2.0306 1.17313L6.49997 5.6425L10.9693 1.1725C11.1102 1.03161 11.3013 0.952454 11.5006 0.952454C11.6999 0.952454 11.891 1.03161 12.0318 1.1725C12.1727 1.3134 12.2519 1.5045 12.2519 1.70375C12.2519 1.90301 12.1727 2.09411 12.0318 2.235L12.0306 2.23563Z" fill="#25272A"/>
</svg>
