<svg width="12" height="7" viewBox="0 0 12 7" fill="none" xmlns="http://www.w3.org/2000/svg">
<path d="M11.2788 5.71757L6.28045 0.720464C6.21079 0.650584 6.12803 0.59514 6.03689 0.557307C5.94576 0.519475 5.84805 0.5 5.74937 0.5C5.6507 0.5 5.55299 0.519475 5.46186 0.557307C5.37072 0.59514 5.28796 0.650584 5.2183 0.720464L0.219977 5.71757C0.0791283 5.85838 -2.09881e-09 6.04937 0 6.24851C2.09881e-09 6.44765 0.0791283 6.63864 0.219977 6.77945C0.360826 6.92027 0.551859 6.99938 0.751049 6.99938C0.95024 6.99938 1.14127 6.92027 1.28212 6.77945L5.75 2.31267L10.2179 6.78008C10.3587 6.92089 10.5498 7 10.7489 7C10.9481 7 11.1392 6.92089 11.28 6.78008C11.4209 6.63926 11.5 6.44828 11.5 6.24913C11.5 6.04999 11.4209 5.85901 11.28 5.71819L11.2788 5.71757Z" fill="#25272A"/>
</svg>
